{"title":"Comedown (2012) DVDRip XViD juggs","uid":8243601,"size":746160761,"categoryP":"video","categoryS":"movies","magnet":"?xt=urn:btih:76eecf9be931fe647c157ba14f755576cf84f290&amp;dn=Comedown+%282012%29+DVDRip+XViD+juggs&amp;tr=udp%3A%2F%2Ftracker.openbittorrent.com%3A80&amp;tr=udp%3A%2F%2Fopen.demonii.com%3A1337&amp;tr=udp%3A%2F%2Ftracker.coppersurfer.tk%3A6969&amp;tr=udp%3A%2F%2Fexodus.desync.com%3A6969","seeders":3,"leechers":1,"uploader":"juggs99","files":3,"time":1363012120,"description":"Source : L-S\n\n\nFormat : AVI\nFormat/Info : Audio Video Interleave\nFile size : 700 MiB\nDuration : 1h 30mn\nOverall bit rate : 1 087 Kbps\nWriting library : VirtualDub build 32842/release\n\nVideo\nID : 0\nFormat : MPEG-4 Visual\nFormat profile : Advanced Simple@L5\nFormat settings, BVOP : 4\nFormat settings, QPel : No\nFormat settings, GMC : No warppoints\nFormat settings, Matrix : Default (H.263)\nMuxing mode : Packed bitstream\nCodec ID : XVID\nCodec ID/Hint : XviD\nDuration : 1h 30mn\nBit rate : 949 Kbps\nWidth : 640 pixels\nHeight : 336 pixels\nDisplay aspect ratio : 1.905\nFrame rate : 25.000 fps\nColor space : YUV\nChroma subsampling : 4:2:0\nBit depth : 8 bits\nScan type : Progressive\nCompression mode : Lossy\nBits/(Pixel*Frame) : 0.177\nStream size : 611 MiB (87%)\nWriting library : XviD 64\n\nAudio\nID : 1\nFormat : MPEG Audio\nFormat version : Version 1\nFormat profile : Layer 3\nMode : Joint stereo\nMode extension : MS Stereo\nCodec ID : 55\nCodec ID/Hint : MP3\nDuration : 1h 30mn\nBit rate mode : Constant\nBit rate : 128 Kbps\nChannel(s) : 2 channels\nSampling rate : 44.1 KHz\nCompression mode : Lossy\nStream size : 82.4 MiB (12%)\nAlignment : Split accross interleaves\nInterleave, duration : 40 ms (1.00 video frame)\nInterleave, preload duration : 500 ms\nWriting library : LAME3.98\n\n\nPlot\nSix friends who turn the deserted the tower block they lived in as kids into a pirate radio station soon learn they are not alone, as a resident psychopath begins hunting them down.\n\n &lt;a href=&quot;\nhttp://www.shotpix.com/images/49243498413654386221.png&quot; rel=&quot;nofollow&quot; target=&quot;_NEW&quot;&gt;\nhttp://www.shotpix.com/images/49243498413654386221.png&lt;/a&gt; &lt;a href=&quot;\nhttp://www.shotpix.com/images/08058331584151681182.png&quot; rel=&quot;nofollow&quot; target=&quot;_NEW&quot;&gt;\nhttp://www.shotpix.com/images/08058331584151681182.png&lt;/a&gt; &lt;a href=&quot;\nhttp://www.shotpix.com/images/01305588957732894849.png&quot; rel=&quot;nofollow&quot; target=&quot;_NEW&quot;&gt;\nhttp://www.shotpix.com/images/01305588957732894849.png&lt;/a&gt;","torrent":{"xt":"urn:btih:76eecf9be931fe647c157ba14f755576cf84f290","amp;dn":"Comedown+%282012%29+DVDRip+XViD+juggs","amp;tr":["udp%3A%2F%2Ftracker.openbittorrent.com%3A80","udp%3A%2F%2Fopen.demonii.com%3A1337","udp%3A%2F%2Ftracker.coppersurfer.tk%3A6969","udp%3A%2F%2Fexodus.desync.com%3A6969"],"infoHash":"76eecf9be931fe647c157ba14f755576cf84f290","infoHashBuffer":{"type":"Buffer","data":[118,238,207,155,233,49,254,100,124,21,123,161,79,117,85,118,207,132,242,144]},"announce":[],"urlList":[]}}